<svg viewBox="0 0 407.86 340.5" xmlns="http://www.w3.org/2000/svg" xmlns:xlink="http://www.w3.org/1999/xlink"><linearGradient id="a" gradientUnits="userSpaceOnUse" x1="265.81" x2="265.81" y1="189.49" y2="312.81"><stop offset="0" stop-opacity="0"/><stop offset=".91" stop-opacity=".8"/><stop offset="1"/></linearGradient><linearGradient id="b" x1="309.37" x2="309.09" xlink:href="#a" y1="236.95" y2="259.76"/><linearGradient id="c" gradientUnits="userSpaceOnUse" x1="291.74" x2="315.12" y1="313.48" y2="313.48"><stop offset="0" stop-color="#ecc4d7"/><stop offset=".42" stop-color="#efd4d1"/><stop offset="1" stop-color="#f2eac9"/></linearGradient><linearGradient id="d" x1="312.4" x2="325.56" xlink:href="#c" y1="317.79" y2="317.79"/><linearGradient id="e" x1="292.84" x2="315.43" xlink:href="#c" y1="255.02" y2="255.02"/><linearGradient id="f" x1="84.43" x2="70.54" xlink:href="#a" y1="305.67" y2="287.28"/><linearGradient id="g" x1="80.69" x2="82.4" xlink:href="#a" y1="327.55" y2="316.01"/><linearGradient id="h" x1="336.83" x2="322.94" xlink:href="#a" y1="294.35" y2="275.96"/><linearGradient id="i" x1="333.1" x2="334.81" xlink:href="#a" y1="316.23" y2="304.69"/><linearGradient id="j" x1="248.83" x2="257.57" xlink:href="#c" y1="339.18" y2="339.18"/><linearGradient id="k" x1="274.5" x2="282.02" xlink:href="#c" y1="338.36" y2="338.36"/><linearGradient id="l" x1="243.87" x2="248.52" xlink:href="#a" y1="334.81" y2="353.54"/><linearGradient id="m" x1="270.78" x2="280.78" xlink:href="#a" y1="334.77" y2="356.87"/><linearGradient id="n" x1="221.14" x2="399.64" xlink:href="#a" y1="200.11" y2="173.08"/><linearGradient id="o" x1="111.89" x2="121.92" xlink:href="#c" y1="309.56" y2="309.56"/><linearGradient id="p" x1="144.93" x2="153.19" xlink:href="#c" y1="308.64" y2="308.64"/><linearGradient id="q" x1="141.54" x2="140.42" xlink:href="#a" y1="346.72" y2="359.02"/><linearGradient id="r" x1="175.43" x2="178.32" xlink:href="#a" y1="342.05" y2="353.66"/><linearGradient id="s" x1="143.19" x2="121.53" xlink:href="#a" y1="235.87" y2="239.42"/><linearGradient id="t" x1="150.04" x2="119.06" xlink:href="#a" y1="237.43" y2="265.77"/><linearGradient id="u" x1="329.71" x2="342.39" xlink:href="#c" y1="207.07" y2="207.07"/><linearGradient id="v" x1="217.72" x2="216.03" xlink:href="#a" y1="214.47" y2="262.33"/><linearGradient id="w" x1="217.02" x2="217.19" xlink:href="#a" y1="229.74" y2="243.04"/><linearGradient id="x" x1="279.83" x2="306.29" xlink:href="#a" y1="183.99" y2="163.34"/><linearGradient id="y" x1="187.02" x2="201.59" xlink:href="#c" y1="142.95" y2="142.95"/><linearGradient id="z" x1="257.04" x2="274.2" xlink:href="#c" y1="204.75" y2="204.75"/><linearGradient id="A" x1="130.89" x2="61.16" xlink:href="#a" y1="241.11" y2="245.86"/><linearGradient id="B" x1="125.77" x2="110.87" xlink:href="#c" y1="195.82" y2="207.02"/><linearGradient id="C" x1="165.48" x2="186.42" xlink:href="#c" y1="255.26" y2="255.26"/><linearGradient id="D" x1="113.6" x2="62.2" xlink:href="#a" y1="236.82" y2="235.14"/><linearGradient id="E" x1="122.29" x2="142.16" xlink:href="#c" y1="263.82" y2="263.82"/><linearGradient id="F" x1="217.23" x2="86.02" xlink:href="#a" y1="325.14" y2="298.68"/><linearGradient id="G" x1="336.07" x2="328.19" xlink:href="#c" y1="174.36" y2="195.76"/><linearGradient id="H" x1="355.1" x2="311.74" xlink:href="#a" y1="237.87" y2="253.07"/><linearGradient id="I" x1="317.12" x2="317.77" xlink:href="#a" y1="174.36" y2="183.7"/><linearGradient id="J" x1="408.21" x2="314.17" xlink:href="#a" y1="288.98" y2="287.85"/><linearGradient id="K" x1="287.69" x2="283.38" xlink:href="#a" y1="333.35" y2="347.62"/><linearGradient id="L" x1="310.82" x2="310.07" xlink:href="#a" y1="342.12" y2="353.57"/><linearGradient id="M" x1="118.24" x2="128.09" xlink:href="#c" y1="175.85" y2="186.41"/><linearGradient id="N" x1="259.5" x2="263.3" xlink:href="#c" y1="157.44" y2="164.91"/><linearGradient id="O" x1="267.23" x2="272.44" xlink:href="#c" y1="141.33" y2="141.33"/><linearGradient id="P" x1="257.41" x2="248.96" xlink:href="#c" y1="130.14" y2="154.73"/><linearGradient id="Q" x1="119.15" x2="111.97" xlink:href="#a" y1="204.93" y2="206.27"/><linearGradient id="R" x1="156.66" x2="130.38" xlink:href="#a" y1="298.85" y2="315.36"/><linearGradient id="S" x1="139.99" x2="142.24" xlink:href="#a" y1="316.87" y2="218.33"/><linearGradient id="T" x1="289.56" x2="291.81" xlink:href="#a" y1="302.61" y2="227.15"/><linearGradient id="U" x1="292.64" x2="284.12" xlink:href="#c" y1="239.46" y2="227.21"/><linearGradient id="V" x1="309.81" x2="313.22" xlink:href="#a" y1="178.44" y2="178.44"/><linearGradient id="W" x1="170.08" x2="166.56" xlink:href="#a" y1="246.51" y2="260.45"/><path d="m241.82 76.69s36.64-4.45 50.53 30.53 32.52 41.9 54.17 48.58 54.35 45.7 39.68 116.83-3.61 70.66-3.61 70.66l-293.48 17.78s-50.73-33.33-22.67-133.7c12.08-43.21 12.87-69.51 9.84-85.45-5.94-31.26 6.61-63.31 33.07-81 29.75-19.84 73.65-27.69 132.47 15.77z" fill="#68e1fd" opacity=".27" transform="translate(-19.11 -34.56)"/><path d="m247.27 223.67s-.64 6.32-.64 12.81v100.3h11.8l6.72-80.53 7.79 80.53h11.32s1.64-91.15 0-99.41-2.26-15.68-2.26-15.68z" fill="#68e1fd" transform="translate(-19.11 -34.56)"/><path d="m247.57 223.41a91.86 91.86 0 0 0 -.94 12.51v100.3h11.8l6.72-80.53 7.79 80.53h11.32s1.64-91.15 0-99.41-2.26-15.68-2.26-15.68z" fill="url(#a)" transform="translate(-19.11 -34.56)"/><path d="m328.61 216-11 24.08-24.67-11.62-5.85 9.54 26.32 17.22s14.35 7.66 17.33-11.27-2.13-27.95-2.13-27.95z" fill="#68e1fd" transform="translate(-19.11 -34.56)"/><path d="m328.61 216-11 24.08-24.67-11.62-5.85 9.54 26.32 17.22s14.35 7.66 17.33-11.27-2.13-27.95-2.13-27.95z" fill="url(#b)" transform="translate(-19.11 -34.56)"/><path d="m303.82 291.51a76 76 0 0 1 11.3 4.82q-7.51 19.2-15.81 38.09a1.44 1.44 0 0 1 -2 1c-2.21-.34-4.85-1.06-5.44-3.22a5.72 5.72 0 0 1 0-2.33c.56-3.81 11.26-38.59 11.95-38.36z" fill="url(#c)" transform="translate(-19.11 -34.56)"/><path d="m313.36 295.74a78.31 78.31 0 0 1 12.2 1.47q-1.85 20.54-4.53 41a1.82 1.82 0 0 1 -.27.89 2 2 0 0 1 -1.39.59c-2.22.28-5 .34-6.12-1.57a5.62 5.62 0 0 1 -.64-2.25c-.52-3.77.02-40.15.75-40.13z" fill="url(#d)" transform="translate(-19.11 -34.56)"/><path d="m309.54 250.13c-1.75-.29-11.24-2-12.77-1.13-2.06 1.22-5.2 11.41-3.39 11.67a92.35 92.35 0 0 0 21 0c.44-.05 1-.23 1-.68a1 1 0 0 0 -.32-.63c-4.81-5.62 2.19-7.95-5.52-9.23z" fill="url(#e)" transform="translate(-19.11 -34.56)"/><path d="m73.72 361.54c-18.42 2.58-37 5.2-54.61 11.12 10.24 3.21 21.24 2.47 32 1.86 122.63-7.07 247.14 5 367.41-20 3.68-.76 8.16-2.41 8.48-6.16.44-5-6.54-6.68-11.58-6.46l-92.1 3.93 5.77-4q-50.13-.24-100.25 1.47c-11.29.38-20.68 3.79-31.48 5.67-12.95 2.25-27.24 1.18-40.4 2.32-27.89 2.48-55.57 6.36-83.24 10.25z" fill="#68e1fd" opacity=".27" transform="translate(-19.11 -34.56)"/><rect fill="#68e1fd" height="14.45" rx="6.23" width="42.02" x="61.16" y="266.53"/><path d="m77.67 280.99h7.32v41.15h-7.32z" fill="#68e1fd"/><path d="m77.67 280.99h7.32v41.15h-7.32z" fill="url(#f)"/><rect fill="#68e1fd" height="6.24" rx="3.12" width="22.51" x="70.07" y="320.18"/><rect fill="url(#g)" height="6.24" rx="3.12" width="22.51" x="70.07" y="320.18"/><rect fill="#68e1fd" height="14.45" rx="6.23" width="42.02" x="313.56" y="255.21"/><path d="m330.07 269.67h7.32v41.15h-7.32z" fill="#68e1fd"/><path d="m330.07 269.67h7.32v41.15h-7.32z" fill="url(#h)"/><rect fill="#68e1fd" height="6.24" rx="3.12" width="22.51" x="322.47" y="308.86"/><rect fill="url(#i)" height="6.24" rx="3.12" width="22.51" x="322.47" y="308.86"/><path d="m249.55 343.69a2.75 2.75 0 0 0 .72.83 2.28 2.28 0 0 0 1.64.23c1.52-.26 2.72-.06 3.6-1.32s1.49-4 1.87-5.45c.65-2.57-.4-3.69-2.86-4.15-1.64-.3-3.43-.54-4.93.37 0 0-1.67 6.93-.04 9.49z" fill="url(#j)" transform="translate(-19.11 -34.56)"/><path d="m274.74 341.94a1.14 1.14 0 0 0 1.29 1.44c1.67.06 3.35.07 5 0a1.2 1.2 0 0 0 .5-.09c.41-.19.46-.73.46-1.18v-8a1.1 1.1 0 0 0 -.08-.51c-.21-.38-.75-.38-1.19-.33-1.49.2-5.48 0-6.06 1.41-.35.86 0 2.68 0 3.61 0 1.24-.01 2.45.08 3.65z" fill="url(#k)" transform="translate(-19.11 -34.56)"/><path d="m247.77 341.12a20.38 20.38 0 0 0 -2.23.9l-7.67 3.49a3.89 3.89 0 0 0 -1.9 1.41 2.8 2.8 0 0 0 .26 2.73 6.56 6.56 0 0 0 3.8 2.74 16.43 16.43 0 0 0 4.74.52 76.62 76.62 0 0 0 9.93-.61 2.33 2.33 0 0 0 1.32-.45 2.28 2.28 0 0 0 .54-.93 16.54 16.54 0 0 0 .89-7.48 4.14 4.14 0 0 0 -.58-1.88c-.81-1.18-2.84-.87-4.09-.93a14.35 14.35 0 0 0 -5.01.49z" fill="#68e1fd" transform="translate(-19.11 -34.56)"/><path d="m247.77 341.12a20.38 20.38 0 0 0 -2.23.9l-7.67 3.49a3.89 3.89 0 0 0 -1.9 1.41 2.8 2.8 0 0 0 .26 2.73 6.56 6.56 0 0 0 3.8 2.74 16.43 16.43 0 0 0 4.74.52 76.62 76.62 0 0 0 9.93-.61 2.33 2.33 0 0 0 1.32-.45 2.28 2.28 0 0 0 .54-.93 16.54 16.54 0 0 0 .89-7.48 4.14 4.14 0 0 0 -.58-1.88c-.81-1.18-2.84-.87-4.09-.93a14.35 14.35 0 0 0 -5.01.49z" fill="url(#l)" transform="translate(-19.11 -34.56)"/><path d="m275 342.11a6.45 6.45 0 0 0 -4.81 2.61 7.69 7.69 0 0 0 -.81 4.19c0 1.09.07 2.17.12 3.26a2.28 2.28 0 0 0 .53 1.64 2.18 2.18 0 0 0 1.53.38 37.55 37.55 0 0 0 13.17-2.54.77.77 0 0 0 .43-.3.81.81 0 0 0 .06-.41c-.06-1.81-.19-3.62-.4-5.42a5.05 5.05 0 0 0 -.41-1.67c-1.56-3.09-6.77-2.09-9.41-1.74z" fill="#68e1fd" transform="translate(-19.11 -34.56)"/><path d="m275 342.11a6.45 6.45 0 0 0 -4.81 2.61 7.69 7.69 0 0 0 -.81 4.19c0 1.09.07 2.17.12 3.26a2.28 2.28 0 0 0 .53 1.64 2.18 2.18 0 0 0 1.53.38 37.55 37.55 0 0 0 13.17-2.54.77.77 0 0 0 .43-.3.81.81 0 0 0 .06-.41c-.06-1.81-.19-3.62-.4-5.42a5.05 5.05 0 0 0 -.41-1.67c-1.56-3.09-6.77-2.09-9.41-1.74z" fill="url(#m)" transform="translate(-19.11 -34.56)"/><path d="m21.03 0h204.88v154.43h-204.88z" fill="#68e1fd" opacity=".4"/><path d="m223 173.33c-10.64-7.66-10.79-16.74-21.22-24.68a46.28 46.28 0 0 0 -7.38 6.17 3.19 3.19 0 0 0 -1 1.57 3.33 3.33 0 0 0 .51 2.06 128.85 128.85 0 0 0 16.09 24.55 18.85 18.85 0 0 0 4.57 4.3c2.82 1.69 6.29 1.92 9.57 1.64a66.66 66.66 0 0 0 25.7-7.5c.69-.35 1.74-2.62 2.17-3.26 1.41-2.1 8-15.15 5.22-16.08s-33.31 11.9-34.23 11.23z" fill="#68e1fd" transform="translate(-19.11 -34.56)"/><path d="m200.76 149.39 1.06-.74a12.26 12.26 0 0 1 -.38 3.66c-.47 1-1.74 4.68-8 4.63-.02 0-.83-1.69 7.32-7.55z" transform="translate(-19.11 -34.56)"/><rect fill="#68e1fd" height="5.92" opacity=".4" rx="2.96" width="180.83" x="32.83" y="97.89"/><rect fill="#68e1fd" height="5.92" opacity=".4" rx="2.96" width="180.83" x="32.83" y="109.16"/><path d="m247.38 167.49c2.1-3.26 6.07-4.79 9.89-5.44s5-2.75 12-2.76c6.19 0 7.11 3.83 9.08 7.42s2.48 7.77 2.89 11.85q1.84 18.16 2 36.46c0 2.3 0 4.73-1.24 6.67-1.67 2.65-5 3.63-8.07 4.21a78.66 78.66 0 0 1 -16.42 1.36 17.68 17.68 0 0 1 -6.86-1.18c-3.38-1.52-5.67-4.86-6.77-8.4a37 37 0 0 1 -1.14-11q0-13.48.92-26.95a27 27 0 0 1 3.72-12.24z" fill="#68e1fd" transform="translate(-19.11 -34.56)"/><path d="m247.38 167.49c2.1-3.26 6.07-4.79 9.89-5.44s5-2.75 12-2.76c6.19 0 7.11 3.83 9.08 7.42s2.48 7.77 2.89 11.85q1.84 18.16 2 36.46c0 2.3 0 4.73-1.24 6.67-1.67 2.65-5 3.63-8.07 4.21a78.66 78.66 0 0 1 -16.42 1.36 17.68 17.68 0 0 1 -6.86-1.18c-3.38-1.52-5.67-4.86-6.77-8.4a37 37 0 0 1 -1.14-11q0-13.48.92-26.95a27 27 0 0 1 3.72-12.24z" fill="url(#n)" transform="translate(-19.11 -34.56)"/><path d="m121.92 304.63-2.51 10.43-7.52-1.04v-9.95z" fill="url(#o)"/><path d="m131 348.58-3.39 8.12 14.55 4.3h11.11s-1.18-5.76-5.31-6.19-9.44-5.16-9.44-5.16z" fill="#68e1fd" transform="translate(-19.11 -34.56)"/><path d="m144.93 303.33 1.91 11.73 6.35-1.92v-10.91z" fill="url(#p)"/><path d="m166 349.62v8.85l18.7-3.69 6.23-5.16s-2.12-5.46-7.57-3.54-9.46 2.21-10.24 1.62-2.33 0-2.33 0z" fill="#68e1fd" transform="translate(-19.11 -34.56)"/><path d="m131 348.58-3.39 8.12 14.55 4.3h11.11s-1.18-5.76-5.31-6.19-9.44-5.16-9.44-5.16z" fill="url(#q)" transform="translate(-19.11 -34.56)"/><path d="m166 349.62v8.85l18.7-3.69 6.23-5.16s-2.12-5.46-7.57-3.54-9.46 2.21-10.24 1.62-2.33 0-2.33 0z" fill="url(#r)" transform="translate(-19.11 -34.56)"/><path d="m129.93 211.56 17.58 33.77 24 4.69.67 7.59-25.75 3.06s-3.28 1.39-9.23-6.19c-3.46-4.4-8.26-13.28-8.26-13.28z" fill="#68e1fd" transform="translate(-19.11 -34.56)"/><path d="m172.17 257.61-25.75 3.06s-3.28 1.39-9.23-6.19c-3.46-4.4-8.26-13.28-8.26-13.28l1-29.64 2.31 4.44 15.27 29.33 24 4.69.38 5.13z" fill="url(#s)" transform="translate(-19.11 -34.56)"/><path d="m171.88 255.15h-22.8s-3.28 1.39-9.24-6.19c-3.45-4.4-8.26-13.28-8.26-13.28l.66-19.68 15.27 29.33 24 4.69z" fill="url(#t)" transform="translate(-19.11 -34.56)"/><path d="m330.74 212.73c-.07.33 1.35-.58 1.59-.35a1.45 1.45 0 0 0 .76.32l2 .42a8.16 8.16 0 0 0 4 .15 5.13 5.13 0 0 0 3.27-4.72 9.94 9.94 0 0 0 -1.87-5.71 4.66 4.66 0 0 0 -1.79-1.84 5.15 5.15 0 0 0 -2.14-.34c-2 0-7.79.3-6.72 2.53a15.65 15.65 0 0 1 .9 9.54z" fill="url(#u)" transform="translate(-19.11 -34.56)"/><path d="m32.83 17.85h180.83v70.8h-180.83z" fill="#68e1fd" opacity=".4"/><path d="m157.32 35.1h47.94v2.51h-47.94z" fill="#68e1fd" opacity=".8"/><path d="m157.32 51.99h47.94v2.51h-47.94z" fill="#68e1fd" opacity=".8"/><path d="m157.32 56.2h47.94v2.51h-47.94z" fill="#68e1fd" opacity=".8"/><path d="m157.32 39.53h34.37v2.51h-34.37z" fill="#68e1fd" opacity=".8"/><path d="m46.69 31.27h3.83v41.3h-3.83z" fill="#fff"/><path d="m54.21 45.58h3.83v26.99h-3.83z" fill="#fff"/><path d="m61.59 42.04h3.83v30.53h-3.83z" fill="#fff"/><path d="m69.11 46.3h3.83v26.27h-3.83z" fill="#fff"/><path d="m92.05 92.2a1 1 0 0 1 -.62-.22l-8.86-7-6.45 5.54-11.12-14.52a1 1 0 0 1 1.59-1.22l9.83 12.88 6.09-5.23 10.16 8a1 1 0 0 1 -.62 1.79z" fill="#68e1fd" opacity=".64" transform="translate(-19.11 -34.56)"/><path d="m167.72 88.45a24.58 24.58 0 1 1 -24.57-24.58v24.58z" fill="#68e1fd" opacity=".8" transform="translate(-19.11 -34.56)"/><path d="m171 84.46h-24.58v-24.58a24.57 24.57 0 0 1 24.58 24.58z" fill="#68e1fd" opacity=".8" transform="translate(-19.11 -34.56)"/><path d="m1.93 126.07h80.27v72.08h-80.27z" fill="#68e1fd" opacity=".4"/><path d="m127.31 226.12h179.57v11.86h-179.57z" fill="#68e1fd"/><path d="m127.31 226.12h179.57v11.86h-179.57z" fill="url(#v)"/><path d="m127.31 233.64h179.57v4.34h-179.57z" fill="url(#w)"/><path d="m274.51 160.82c7.46 7.27 18.59 16.57 23.4 25.82 1.08 2.08 2 4.37 1.73 6.69-.48 3.77-4 6.32-7.36 8.11a133.44 133.44 0 0 1 -16.24 6.9 2.31 2.31 0 0 1 -1.58.19 2.26 2.26 0 0 1 -1-1.1 91.16 91.16 0 0 1 -4.39-8.93 1.78 1.78 0 0 1 -.21-1.12 1.74 1.74 0 0 1 .88-.91c4.37-2.57 10-3.27 13.25-7.2a22.61 22.61 0 0 1 -12.09-13.22c-2.31-6.8-2.27-12.54 3.61-15.23z" fill="#68e1fd" transform="translate(-19.11 -34.56)"/><path d="m274.51 160.82c7.46 7.27 18.59 16.57 23.4 25.82 1.08 2.08 2 4.37 1.73 6.69-.48 3.77-4 6.32-7.36 8.11a133.44 133.44 0 0 1 -16.24 6.9 2.31 2.31 0 0 1 -1.58.19 2.26 2.26 0 0 1 -1-1.1 91.16 91.16 0 0 1 -4.39-8.93 1.78 1.78 0 0 1 -.21-1.12 1.74 1.74 0 0 1 .88-.91c4.37-2.57 10-3.27 13.25-7.2a22.61 22.61 0 0 1 -12.09-13.22c-2.31-6.8-2.27-12.54 3.61-15.23z" fill="url(#x)" transform="translate(-19.11 -34.56)"/><path d="m268.85 197.38s3.27.69 4.33 3.29 1.28 7.86 1.28 7.86-1.89.15-2.29-1.46-4.82-7-3.32-9.69z" transform="translate(-19.11 -34.56)"/><path d="m200.4 154.21a3.42 3.42 0 0 1 -2.4 1.49c-1.49.11-2.72-1.07-3.74-2.16-2.23-2.4-4.53-4.88-5.69-7.95a23.13 23.13 0 0 1 -.95-3.47 16.34 16.34 0 0 1 -.49-5.81c.28-1.93 2.55-6.11 5.63-6.11.18 0 2.53 5.94 2.72 6.22l2.23 3.1a9 9 0 0 0 2.16-2.88 4.08 4.08 0 0 1 .73 2.89c-.07 1-.37 2-.54 3a13.12 13.12 0 0 0 .44 6.22c.26.83 1.05 1.86 1.09 2.72a5.58 5.58 0 0 1 -1.19 2.74z" fill="url(#y)" transform="translate(-19.11 -34.56)"/><path d="m265.3 198.67a2.46 2.46 0 0 0 -1 0 1 1 0 0 0 -.71.65c-.15.55.34 1 .73 1.45a.51.51 0 0 1 .17.29c0 .24-.27.37-.5.43l-5.54 1.41a1 1 0 0 0 -.53.25.88.88 0 0 0 -.18.39 3.72 3.72 0 0 0 -.07 1.66.85.85 0 0 1 0 .7c-.08.12-.23.17-.33.27a1.14 1.14 0 0 0 -.12 1.26 5.32 5.32 0 0 0 5.05 3.41 13.9 13.9 0 0 0 3.4-.8 18.59 18.59 0 0 1 2.46-.54c1.23-.19 2.61-.32 3.45-1.25s2.68-2.28 2.67-2.84c0-.87-.82-5.14-1.52-5.66a18.09 18.09 0 0 1 -3.94-.32 15.07 15.07 0 0 0 -3.49-.76z" fill="url(#z)" transform="translate(-19.11 -34.56)"/><path d="m112.08 201.66c-2.67 3.22-9.93 12-10.83 16.05q-4.43 20-8.83 40a39.77 39.77 0 0 0 -1.31 9.5c.24 10.42 9.89 19.7 20.31 19.53a17.08 17.08 0 0 0 9.79-3.12c3.63-2.67 5.82-6.85 7.56-11 2.4-5.72-1-9.8.51-15.8 2.54-10.13 5.95-28.82 3-38.85-6.71-23.07-20.2-16.31-20.2-16.31z" fill="#68e1fd" transform="translate(-19.11 -34.56)"/><path d="m112.08 201.66c-2.67 3.22-9.93 12-10.83 16.05q-4.43 20-8.83 40a39.77 39.77 0 0 0 -1.31 9.5c.24 10.42 9.89 19.7 20.31 19.53a17.08 17.08 0 0 0 9.79-3.12c3.63-2.67 5.82-6.85 7.56-11 2.4-5.72-1-9.8.51-15.8 2.54-10.13 6.16-26.19 3.6-36.32s-10-31.91-20.8-18.84z" fill="url(#A)" transform="translate(-19.11 -34.56)"/><path d="m127.38 195.74c-.74 3.41-2.37 8.16-1.11 12.68.51 1.82-10.7-2.86-12.2-5.4-1.81-3.05 3.76-3.35-.19-10.7-1.68-3.13 9.48 3.47 13 4" fill="url(#B)" transform="translate(-19.11 -34.56)"/><path d="m179.22 250.26a7.35 7.35 0 0 1 3.61.46 6 6 0 0 1 2.41 2.71 8.52 8.52 0 0 1 1 5.56 1.72 1.72 0 0 1 -.45.95 2 2 0 0 1 -1.48.34l-5.77-.18a7.57 7.57 0 0 1 -4.08-.9c-.79-.53-1.41-1.37-2.34-1.59a4.54 4.54 0 0 0 -1.83.09 11.57 11.57 0 0 1 -3.62 0 1.39 1.39 0 0 1 -.84-.35 1.41 1.41 0 0 1 -.27-.77c-.35-2.62-.16-5.1 2.56-5.81 3.37-.88 7.66-.36 11.1-.51z" fill="url(#C)" transform="translate(-19.11 -34.56)"/><path d="m105.31 210.33s-16.06 24.46-15.62 31.1 33.7 23.65 33.7 23.65l5.07-7.68-17.77-19.29 8.91-18.37s.55-16.74-14.29-9.41z" fill="#68e1fd" transform="translate(-19.11 -34.56)"/><path d="m125.38 262.49-2 2.59s-33.25-17-33.7-23.65 15.62-31.1 15.62-31.1c4.16-2.05 6-1.72 8.21-1-1 1.68-14.76 24.07-14.34 30.45.32 4.8 16.83 16.46 26.21 22.71z" fill="url(#D)" transform="translate(-19.11 -34.56)"/><path d="m125.09 257.77a4.38 4.38 0 0 0 -2.74 4.66 6.65 6.65 0 0 0 2.07 3.22 28.31 28.31 0 0 0 4.11 3.38 6.74 6.74 0 0 0 2.27 1.1c2.9.66 5.5-2 8.45-2.35a6 6 0 0 0 1.59-.25 2.47 2.47 0 0 0 1.24-2.87 4.7 4.7 0 0 0 -2.1-2.59 8.62 8.62 0 0 0 -3.82-1.36 14 14 0 0 1 -3.38-.41c-1.33-.48-1.85-1.77-3.13-2.33a6 6 0 0 0 -4.56-.2z" fill="url(#E)" transform="translate(-19.11 -34.56)"/><path d="m92.05 272.54s-6.8 17.46-2.37 24.46 39.25 13.22 39.25 13.22l-.55 31.65 14.51 1.32 4.11-38.38s.4-4.17-5.75-7.12c0 0 10.44 3.1 12.8 10.77s8.74 33.42 8.74 33.42l11.4-3.26s-1.9-41.22-8.66-49.18-36.71-16.8-36.71-16.8z" fill="#68e1fd" transform="translate(-19.11 -34.56)"/><path d="m174.14 338.62-11.4 3.26-.11-.46c0-.15-.09-.33-.14-.55a.23.23 0 0 0 0-.11c-.06-.25-.13-.55-.22-.89s-.2-.78-.31-1.23c-1.79-7.16-6.09-24.19-7.93-30.18-2-6.6-10.05-9.82-12.24-10.58h-.11l-.33-.11h-.09c6.12 2.95 5.72 7.11 5.72 7.11l-4.06 38.39-14.51-1.32.55-31.65s-34.84-6.3-39.28-13.3 2.37-24.47 2.37-24.47l24 .06h12.77c.91.27 30 8.94 36.69 16.79s8.63 49.24 8.63 49.24z" fill="url(#F)" transform="translate(-19.11 -34.56)"/><path d="m318.72 187.16a3.69 3.69 0 0 0 -1.1 1.54c-.24 1.05.75 1.93 1.35 2.84 1.52 2.32.56 5.58 1.83 8.05s4.35 3.39 7.09 4a13.48 13.48 0 0 0 4.18.52c4.3-.38 7.07-4.62 9-8.48 1.33-2.65 2.61-5.41 2.8-8.37.21-3.23-.89-6.4-2.13-9.39a10.49 10.49 0 0 0 -2.83-4.39 9.5 9.5 0 0 0 -5.59-1.56c-3.3-.12-6.88.35-9.26 2.63-3.56 3.45-2.21 9.23-5.34 12.61z" fill="url(#G)" transform="translate(-19.11 -34.56)"/><path d="m331.7 211.49c-4 3.3-4.12 8.51-4 13.16.34 12.62.77 25.59 6.8 37.2 1.92 3.71 4.64 7.42 9 9.24a23 23 0 0 0 8.34 1.44c6.2.11 12.81-1.17 17-4.91 5.75-5.07 5.47-13 3.77-19.75-2.56-10.5-20.72-53.13-40.91-36.38z" fill="#68e1fd" transform="translate(-19.11 -34.56)"/><path d="m331.7 211.49c-4 3.3-4.12 8.51-4 13.16.34 12.62.77 25.59 6.8 37.2 1.92 3.71 4.64 7.42 9 9.24a23 23 0 0 0 8.34 1.44c6.2.11 12.81-1.17 17-4.91 5.75-5.07 5.47-13 3.77-19.75-2.56-10.5-20.72-53.13-40.91-36.38z" fill="url(#H)" transform="translate(-19.11 -34.56)"/><path d="m316.32 172.51-6.1 3.28-.41 4.86 3.41-2.83 3.72 2.28 7.86-6.74-1.16-3.16z" fill="#68e1fd"/><path d="m316.32 172.51-6.1 3.28-.41 4.86 3.41-2.83 3.72 2.28 7.86-6.74-1.16-3.16z" fill="url(#I)"/><g transform="translate(-19.11 -34.56)"><path d="m333.73 225a12.34 12.34 0 0 1 10-12.07c3.31-.58 6.67-.21 8.76 2.57 3.62 4.82-2.16 23.27-6.2 34.53a15.45 15.45 0 0 1 -13 10.13c-2.66.27-5.35.47-7.33.47-5.61 0-17.56-.26-17.56-.26l.8-13.37s17.74 1 21.54-3c2.32-2.43 2.89-11.91 2.99-19z" fill="#68e1fd"/><path d="m363.09 293.05c-7.65 6.51-19.13 3.71-29.13 4.61-7.24.66-2.33 7.06-8 11.64-5-7.1-16.37-10.32-23.16-15.74 4.57-11.23 14.45-20.49 26.59-22.9 6-1.19 12.12-1.2 18.2-1.34 3.38-.08 6.76-.13 10.13-.45 2.27-.22 7.18-2.16 9.21-1.6 7.31 2.01.82 21.82-3.84 25.78z" fill="#68e1fd"/><path d="m363.09 293.05c-7.65 6.51-19.13 3.71-29.13 4.61-7.24.66-2.33 7.06-8 11.64-5-7.1-16.37-10.32-23.16-15.74 4.57-11.23 14.45-20.49 26.59-22.9 6-1.19 12.12-1.2 18.2-1.34 3.38-.08 6.76-.13 10.13-.45 2.27-.22 7.18-2.16 9.21-1.6 7.31 2.01.82 21.82-3.84 25.78z" fill="url(#J)"/><path d="m289.59 334.53a13.33 13.33 0 0 1 .79-2.91 8 8 0 0 1 1.57-2.28 37.82 37.82 0 0 0 7.17 3.51c.26.1.56.23.63.48a.74.74 0 0 1 -.08.46c-.85 2.2-1.8 4.35-2.84 6.47-.11.23-.26.48-.51.53a.89.89 0 0 1 -.53-.11c-1.78-.76-4.09-1.44-5.64-2.56s-.88-1.96-.56-3.59z"/><path d="m279.91 335a8.31 8.31 0 0 0 -2-.54 3.88 3.88 0 0 0 -3.23 1.68 11.46 11.46 0 0 0 -1.58 3.44 3.27 3.27 0 0 0 -.23 1.87 3.34 3.34 0 0 0 1.66 1.74 127.26 127.26 0 0 0 11.68 6.41 13.47 13.47 0 0 0 6.31 1.78 2.11 2.11 0 0 0 1.18-.34 2.65 2.65 0 0 0 .58-.75 36.9 36.9 0 0 0 2.94-6.73 2.51 2.51 0 0 0 -.81-3.31c-2-1.92-4.47-3.84-7.28-4.32-3.02-.53-6.22.07-9.22-.93z" fill="#68e1fd"/><path d="m312.55 341.24a14.35 14.35 0 0 1 -.11-3 7.85 7.85 0 0 1 .78-2.59 35 35 0 0 0 7.38 1.49c.27 0 .57.07.7.3a.81.81 0 0 1 .06.46c-.14 2.33-.39 4.65-.73 7a.8.8 0 0 1 -.31.64.77.77 0 0 1 -.5 0c-1.8-.26-4.07-.32-5.76-1s-1.33-1.65-1.51-3.3z"/><path d="m303.44 344.22a8.61 8.61 0 0 0 -2 0 3.88 3.88 0 0 0 -2.63 2.52 11.73 11.73 0 0 0 -.55 3.74 2.5 2.5 0 0 0 2.38 3.07 125.63 125.63 0 0 0 13 2.88 13.36 13.36 0 0 0 6.56-.06 2.1 2.1 0 0 0 1-.65 2.31 2.31 0 0 0 .34-.88 35.77 35.77 0 0 0 .94-7.29 3.22 3.22 0 0 0 -.39-2 3.45 3.45 0 0 0 -1.3-1c-2.49-1.27-5.38-2.43-8.2-2.11-3.09.43-6 1.89-9.15 1.78z" fill="#68e1fd"/><path d="m279.91 335a8.31 8.31 0 0 0 -2-.54 3.88 3.88 0 0 0 -3.23 1.68 11.46 11.46 0 0 0 -1.58 3.44 3.27 3.27 0 0 0 -.23 1.87 3.34 3.34 0 0 0 1.66 1.74 127.26 127.26 0 0 0 11.68 6.41 13.47 13.47 0 0 0 6.31 1.78 2.11 2.11 0 0 0 1.18-.34 2.65 2.65 0 0 0 .58-.75 36.9 36.9 0 0 0 2.94-6.73 2.51 2.51 0 0 0 -.81-3.31c-2-1.92-4.47-3.84-7.28-4.32-3.02-.53-6.22.07-9.22-.93z" fill="url(#K)"/><path d="m303.44 344.22a8.61 8.61 0 0 0 -2 0 3.88 3.88 0 0 0 -2.63 2.52 11.73 11.73 0 0 0 -.55 3.74 2.5 2.5 0 0 0 2.38 3.07 125.63 125.63 0 0 0 13 2.88 13.36 13.36 0 0 0 6.56-.06 2.1 2.1 0 0 0 1-.65 2.31 2.31 0 0 0 .34-.88 35.77 35.77 0 0 0 .94-7.29 3.22 3.22 0 0 0 -.39-2 3.45 3.45 0 0 0 -1.3-1c-2.49-1.27-5.38-2.43-8.2-2.11-3.09.43-6 1.89-9.15 1.78z" fill="url(#L)"/><path d="m137.42 181.36c1.57 3.7 2.34 8.12.4 11.63a10.69 10.69 0 0 1 -5.4 4.53 15.64 15.64 0 0 1 -7 1.3c-5.8-.47-12.16-8.08-13.14-10.61a20.66 20.66 0 0 1 -1.52-5.31 10.71 10.71 0 0 1 4.28-9.55c4-2.92 9.35-2.68 14.06-3.15 3.11-.31 3.36.87 4.57 3.51s2.64 5.03 3.75 7.65z" fill="url(#M)"/><path d="m125.49 175.34a27.84 27.84 0 0 0 -5.13 1.16 5.14 5.14 0 0 0 -3.35 3.75c-.24 1.82.92 3.69.37 5.44l-3-3.09a4.48 4.48 0 0 0 .36 8c.43.19.94.37 1.1.81a1.53 1.53 0 0 1 -.11 1l-1.48 4.31a37.19 37.19 0 0 1 -9.82-18.83 9.35 9.35 0 0 1 -.09-4.11 3.82 3.82 0 0 1 2.7-2.86 6.09 6.09 0 0 0 1.87-.37 3.37 3.37 0 0 0 1-1.08c2.39-3.47 6.46-5.49 10.6-6.28 3.36-.65 11.86-2 14 1.85 2.93 5.18-5.13 9.52-9.02 10.3z"/><path d="m265.13 160.24a7.62 7.62 0 0 1 -.55 3.49c-.95 1.89-3.28 2.65-5.39 2.74a3.57 3.57 0 0 1 -2.81-.79 3.85 3.85 0 0 1 -.81-2.25c-.1-.85-.17-1.71-.21-2.56a5.44 5.44 0 0 1 .08-1.56 5.06 5.06 0 0 1 .86-1.74 11.32 11.32 0 0 1 6.8-4.44c1.63-.35 2 .07 2 1.66.07 1.82.03 3.63.03 5.45z" fill="url(#N)"/><path d="m268.06 140a6.12 6.12 0 0 1 1.68-2.52.68.68 0 0 1 .48-.19.76.76 0 0 1 .44.25 5.68 5.68 0 0 1 1.75 3.35 4.51 4.51 0 0 1 -1.09 3.57 2.4 2.4 0 0 1 -1.51.84 2.27 2.27 0 0 1 -2-1.25 5.8 5.8 0 0 1 -.55-2.43c-.05-.91 0-2 .84-2.46" fill="url(#O)"/><path d="m241.54 154a13.3 13.3 0 0 0 4.94 6 13.54 13.54 0 0 0 6.5 1.49 17 17 0 0 0 8.02-1.49 14.15 14.15 0 0 0 6.52-7.62 29.27 29.27 0 0 0 1.69-10c.09-3.84-.23-7.88-2.34-11.08a13.73 13.73 0 0 0 -10.44-5.68c-5.8-.44-16.54 2.26-18.33 8.83-.66 2.43.1 5.21.39 7.64a37.17 37.17 0 0 0 3.05 11.91z" fill="url(#P)"/><path d="m234.32 134.34a11.18 11.18 0 0 0 2.36 5.24c.83-1 .85-2.39 1.08-3.66a10.26 10.26 0 0 1 1.74-4.16 1.91 1.91 0 0 1 .92-.79 2.31 2.31 0 0 1 1.69.53 9 9 0 0 0 5.14 1.25 4.74 4.74 0 0 0 2.45-.75 15.27 15.27 0 0 0 1.38-1.29c2-1.79 5.08-1.73 7.63-.88a7.22 7.22 0 0 1 3.37 2.06c.93 1.12 1.31 2.64 2.3 3.7.59.62 1.39 1.12 1.63 1.94a4.65 4.65 0 0 1 0 1.49 7.14 7.14 0 0 0 .65 3.59c.89-1.11.73-2.76 1.47-4 .56-.93 1.58-1.49 2.2-2.38a6.23 6.23 0 0 0 .59-4.27 44 44 0 0 0 -1.41-7.09 11.74 11.74 0 0 0 -1.06-2.71 9.39 9.39 0 0 0 -6.8-4.23 25.14 25.14 0 0 0 -8.24.49 31.39 31.39 0 0 0 -9.24 2.79 12.05 12.05 0 0 0 -6.19 7.11c-.46 1.67-1.21 1.4-2.36 2.45a4.52 4.52 0 0 0 -1.3 3.57z"/><path d="m114.46 199.27-2.38 2.39s4 6.48 10 8.17 4.22-1.41 4.22-1.41-8.09-1.9-9.15-5a8.17 8.17 0 0 0 -2.69-4.15z" fill="#68e1fd"/><path d="m114.46 199.27-2.38 2.39s4 6.48 10 8.17 4.22-1.41 4.22-1.41-8.09-1.9-9.15-5a8.17 8.17 0 0 0 -2.69-4.15z" fill="url(#Q)"/><path d="m174.14 338.62-11.4 3.26-.11-.46c0-.15-.08-.33-.14-.55a.23.23 0 0 0 0-.11c-.06-.25-.13-.55-.22-.89s-.2-.78-.31-1.23c-1.79-7.16-6.09-24.19-7.93-30.18-2-6.6-10.05-9.82-12.24-10.58h-.11l-.33-.11h-.09l-7.45-5.22s-17.75-13-16.35-19.71l11.37-.12c.91.27 30 8.94 36.69 16.79s8.62 49.11 8.62 49.11z" fill="url(#R)"/></g><path d="m136.52 237.98h8.41v93.45h-8.41z" fill="#68e1fd"/><path d="m136.52 237.98h8.41v93.45h-8.41z" fill="url(#S)"/><path d="m285.89 237.98h8.41v93.45h-8.41z" fill="#68e1fd"/><path d="m285.89 237.98h8.41v93.45h-8.41z" fill="url(#T)"/><path d="m290.19 226.49 1.56 3.88-4.17 6.85s-7.25-5.2-8.84-7.35-6.2-7.89-3.47-10.05 10.84 5.18 10.84 5.18-1.46-4.88 1-3.86c.66.28 3.08 5.35 3.08 5.35z" fill="url(#U)" transform="translate(-19.11 -34.56)"/><path d="m319.17 171.21a14.38 14.38 0 0 0 -.13 5.92 4.83 4.83 0 0 0 .71 2.37 4.55 4.55 0 0 0 2.12 1.33 28.73 28.73 0 0 0 9.08 1.79 2.51 2.51 0 0 1 1.71.47c.5.47.5 1.26.85 1.85.72 1.26 2.52 1.19 4 .95a35.19 35.19 0 0 1 -6.23 21.57 13.15 13.15 0 0 0 13.84-2.4c-.5 1.5 1.54 2.81 3 2.31s2.4-2 3.17-3.36l.73 1.79a14.17 14.17 0 0 0 5.09-8.59 34 34 0 0 0 .19-10.21 36.53 36.53 0 0 0 -2.38-10.86 15.59 15.59 0 0 0 -7.3-8.13c-2.84-1.35-6.08-1.52-9.22-1.57-5.4-.05-17.03-2.23-19.23 4.77z" transform="translate(-19.11 -34.56)"/><path d="m313.22 177.82-2.62-1.59-.79 4.42z" fill="url(#V)"/><path d="m171.5 250s-5 .36-6 2.75.19 5.61.81 5.54 4.05-.61 4.05-.61-3.52 1.12-3.66-1.27-.59-4.7 4.8-6.41z" fill="url(#W)" transform="translate(-19.11 -34.56)"/></svg>